<svg xmlns="http://www.w3.org/2000/svg" viewBox="0 0 200 200" width="200" height="200">
  <defs>
    <linearGradient id="bgGradientM2" x1="0%" y1="0%" x2="100%" y2="100%">
      <stop offset="0%" style="stop-color:#667eea;stop-opacity:1" />
      <stop offset="100%" style="stop-color:#764ba2;stop-opacity:1" />
    </linearGradient>
    <linearGradient id="skinGradientM2" x1="0%" y1="0%" x2="100%" y2="100%">
      <stop offset="0%" style="stop-color:#d7b899;stop-opacity:1" />
      <stop offset="100%" style="stop-color:#c9a876;stop-opacity:1" />
    </linearGradient>
    <linearGradient id="shirtGradientM2" x1="0%" y1="0%" x2="100%" y2="100%">
      <stop offset="0%" style="stop-color:#26c6da;stop-opacity:1" />
      <stop offset="100%" style="stop-color:#00acc1;stop-opacity:1" />
    </linearGradient>
  </defs>
  
  <!-- Background circle with gradient -->
  <circle cx="100" cy="100" r="100" fill="url(#bgGradientM2)" />
  
  <!-- Face -->
  <circle cx="100" cy="80" r="35" fill="url(#skinGradientM2)" />
  
  <!-- Hair (different style) -->
  <path d="M70 65 Q100 50 130 65 Q125 55 100 55 Q75 55 70 65 Z" fill="#3e2723" />
  <path d="M75 70 Q85 65 95 70" fill="#3e2723" />
  <path d="M105 70 Q115 65 125 70" fill="#3e2723" />
  
  <!-- Eyes -->
  <circle cx="90" cy="75" r="3" fill="#333" />
  <circle cx="110" cy="75" r="3" fill="#333" />
  
  <!-- Eyebrows -->
  <path d="M85 70 L95 68" stroke="#3e2723" stroke-width="2" stroke-linecap="round" />
  <path d="M105 68 L115 70" stroke="#3e2723" stroke-width="2" stroke-linecap="round" />
  
  <!-- Nose -->
  <ellipse cx="100" cy="85" rx="2" ry="3" fill="#c9a876" opacity="0.7" />
  
  <!-- Mouth -->
  <path d="M95 92 Q100 95 105 92" stroke="#8d6e63" stroke-width="1.5" fill="none" stroke-linecap="round" />
  
  <!-- Facial hair (beard) -->
  <path d="M90 95 Q100 100 110 95 Q108 105 100 108 Q92 105 90 95" fill="#3e2723" opacity="0.8" />
  
  <!-- Body/Shirt -->
  <path d="M100 115 C75 115 55 140 55 170 L55 200 L145 200 L145 170 C145 140 125 115 100 115 Z" fill="url(#shirtGradientM2)" />
  
  <!-- Collar -->
  <path d="M85 115 Q100 125 115 115" stroke="#0097a7" stroke-width="2" fill="none" />
  
  <!-- Shadow for depth -->
  <ellipse cx="100" cy="190" rx="45" ry="8" fill="#000" opacity="0.1" />
</svg>