<svg xmlns="http://www.w3.org/2000/svg" viewBox="0 0 200 200" width="200" height="200">
  <defs>
    <linearGradient id="bgGradient" x1="0%" y1="0%" x2="100%" y2="100%">
      <stop offset="0%" style="stop-color:#667eea;stop-opacity:1" />
      <stop offset="100%" style="stop-color:#764ba2;stop-opacity:1" />
    </linearGradient>
    <linearGradient id="skinGradient" x1="0%" y1="0%" x2="100%" y2="100%">
      <stop offset="0%" style="stop-color:#fdbcb4;stop-opacity:1" />
      <stop offset="100%" style="stop-color:#f4a6a0;stop-opacity:1" />
    </linearGradient>
    <linearGradient id="shirtGradient" x1="0%" y1="0%" x2="100%" y2="100%">
      <stop offset="0%" style="stop-color:#4fc3f7;stop-opacity:1" />
      <stop offset="100%" style="stop-color:#29b6f6;stop-opacity:1" />
    </linearGradient>
  </defs>
  
  <!-- Background circle with gradient -->
  <circle cx="100" cy="100" r="100" fill="url(#bgGradient)" />
  
  <!-- Face -->
  <circle cx="100" cy="80" r="35" fill="url(#skinGradient)" />
  
  <!-- Hair -->
  <path d="M65 65 Q100 45 135 65 Q130 50 100 50 Q70 50 65 65 Z" fill="#5d4037" />
  
  <!-- Eyes -->
  <circle cx="90" cy="75" r="3" fill="#333" />
  <circle cx="110" cy="75" r="3" fill="#333" />
  
  <!-- Nose -->
  <ellipse cx="100" cy="85" rx="2" ry="3" fill="#f4a6a0" opacity="0.7" />
  
  <!-- Mouth -->
  <path d="M95 92 Q100 96 105 92" stroke="#d32f2f" stroke-width="1.5" fill="none" stroke-linecap="round" />
  
  <!-- Body/Shirt -->
  <path d="M100 115 C75 115 55 140 55 170 L55 200 L145 200 L145 170 C145 140 125 115 100 115 Z" fill="url(#shirtGradient)" />
  
  <!-- Collar -->
  <path d="M85 115 Q100 125 115 115" stroke="#1976d2" stroke-width="2" fill="none" />
  
  <!-- Shadow for depth -->
  <ellipse cx="100" cy="190" rx="45" ry="8" fill="#000" opacity="0.1" />
</svg>